<svg width="16" height="15" viewBox="0 0 16 15" fill="none" xmlns="http://www.w3.org/2000/svg">
<path d="M14.9235 14.0525L15.2776 13.6995L15.2773 13.6992L14.9235 14.0525ZM10.8445 9.96796L10.4972 9.60829L10.1314 9.96149L10.4907 10.3213L10.8445 9.96796ZM10.4388 10.3243L10.7926 9.97096L10.4765 9.65438L10.1268 9.93353L10.4388 10.3243ZM14.5276 14.4189L14.8825 14.0666L14.8815 14.0655L14.5276 14.4189ZM14.9158 14.4263L15.255 14.7936L15.2556 14.793L14.9158 14.4263ZM15.2773 13.6992L11.1983 9.61465L10.4907 10.3213L14.5697 14.4058L15.2773 13.6992ZM11.1919 10.3276C12.3232 9.23512 13.0295 7.72281 13.0295 6.05073H12.0295C12.0295 7.43367 11.4467 8.69143 10.4972 9.60829L11.1919 10.3276ZM13.0295 6.05073C13.0295 2.6961 10.2017 0 6.76474 0V1C9.68544 1 12.0295 3.2837 12.0295 6.05073H13.0295ZM6.76474 0C3.32775 0 0.5 2.6961 0.5 6.05073H1.5C1.5 3.2837 3.84404 1 6.76474 1V0ZM0.5 6.05073C0.5 9.40536 3.32775 12.1015 6.76474 12.1015V11.1015C3.84404 11.1015 1.5 8.81776 1.5 6.05073H0.5ZM6.76474 12.1015C8.27625 12.1015 9.66626 11.5809 10.7508 10.715L10.1268 9.93353C9.2151 10.6615 8.04392 11.1015 6.76474 11.1015V12.1015ZM10.085 10.6776L14.1738 14.7722L14.8815 14.0655L10.7926 9.97096L10.085 10.6776ZM14.1728 14.7712C14.3272 14.9266 14.53 15 14.7256 15V14C14.7768 14 14.8357 14.0194 14.8825 14.0666L14.1728 14.7712ZM14.7256 15C14.9131 15 15.1045 14.9326 15.255 14.7936L14.5767 14.0589C14.6206 14.0183 14.6753 14 14.7256 14V15ZM15.2556 14.793C15.5724 14.4995 15.5828 14.0057 15.2776 13.6995L14.5694 14.4055C14.4739 14.3097 14.4777 14.1505 14.576 14.0595L15.2556 14.793ZM6.76474 10.5728C4.14683 10.5728 2.04902 8.52621 2.04902 6.05073H1.04902C1.04902 9.11382 3.63054 11.5728 6.76474 11.5728V10.5728ZM2.04902 6.05073C2.04902 3.57525 4.14683 1.52864 6.76474 1.52864V0.528641C3.63054 0.528641 1.04902 2.98764 1.04902 6.05073H2.04902ZM6.76474 1.52864C9.38265 1.52864 11.4805 3.57525 11.4805 6.05073H12.4805C12.4805 2.98764 9.89894 0.528641 6.76474 0.528641V1.52864ZM11.4805 6.05073C11.4805 8.5262 9.38239 10.5728 6.76474 10.5728V11.5728C9.89865 11.5728 12.4805 9.11384 12.4805 6.05073H11.4805Z" fill="#242424"/>
</svg>
